<svg id="svg" xmlns="http://www.w3.org/2000/svg" xmlns:xlink="http://www.w3.org/1999/xlink" width="400" height="400" viewBox="0, 0, 400,400"><g id="svgg"><path id="path0" d="M0.000 200.000 L 0.000 400.000 200.000 400.000 L 400.000 400.000 400.000 200.000 L 400.000 0.000 200.000 0.000 L 0.000 0.000 0.000 200.000 M216.000 2.336 C 217.870 2.550,220.030 2.825,220.800 2.948 C 221.570 3.071,224.540 3.378,227.400 3.630 C 230.260 3.882,232.891 4.242,233.246 4.429 C 233.602 4.617,235.582 4.976,237.646 5.226 C 239.711 5.476,241.705 5.844,242.079 6.043 C 242.452 6.242,244.138 6.669,245.825 6.992 C 247.512 7.315,249.102 7.752,249.357 7.964 C 249.611 8.175,250.805 8.471,252.010 8.621 C 253.214 8.771,254.944 9.213,255.854 9.604 C 256.763 9.994,258.278 10.444,259.220 10.603 C 260.162 10.763,261.488 11.231,262.167 11.645 C 262.845 12.059,263.850 12.399,264.400 12.401 C 264.950 12.403,265.920 12.676,266.555 13.007 C 267.190 13.339,268.672 13.889,269.848 14.231 C 271.023 14.573,272.089 15.021,272.216 15.226 C 272.343 15.432,272.770 15.600,273.164 15.600 C 273.558 15.600,274.727 16.050,275.762 16.600 C 276.796 17.150,277.858 17.606,278.121 17.613 C 278.385 17.619,279.500 18.068,280.600 18.609 C 281.700 19.150,282.887 19.594,283.238 19.596 C 283.589 19.598,284.202 19.960,284.600 20.400 C 284.998 20.840,285.632 21.200,286.008 21.200 C 286.384 21.200,287.121 21.535,287.646 21.945 C 288.171 22.355,289.050 22.830,289.600 23.001 C 290.150 23.172,291.561 23.853,292.735 24.514 L 294.869 25.715 291.278 29.358 C 287.928 32.756,286.010 34.810,281.526 39.800 C 280.538 40.900,278.782 43.033,277.625 44.540 C 276.467 46.047,275.223 47.603,274.860 47.998 C 273.441 49.542,272.400 50.881,272.400 51.164 C 272.400 51.327,271.950 51.883,271.400 52.400 C 270.850 52.917,270.400 53.546,270.400 53.798 C 270.400 54.050,269.995 54.631,269.500 55.089 C 269.005 55.548,268.150 56.578,267.600 57.378 C 267.050 58.178,266.150 59.435,265.600 60.171 C 265.050 60.907,264.330 61.911,264.000 62.401 C 263.670 62.891,263.073 63.720,262.673 64.243 C 261.028 66.397,257.600 71.642,257.600 72.007 C 257.600 72.223,257.425 72.400,257.210 72.400 C 256.996 72.400,256.527 72.968,256.168 73.662 C 255.809 74.357,255.351 75.122,255.150 75.362 C 254.194 76.509,252.414 79.455,252.407 79.900 C 252.403 80.175,252.224 80.400,252.008 80.400 C 251.793 80.400,251.248 81.075,250.799 81.900 C 250.349 82.725,249.531 84.120,248.982 85.000 C 248.432 85.880,247.772 87.050,247.515 87.600 C 247.258 88.150,246.745 88.960,246.375 89.400 C 245.623 90.296,244.746 91.865,243.748 94.100 C 242.794 96.238,240.693 95.287,239.779 92.302 C 238.829 89.203,231.170 82.000,228.824 82.000 C 228.071 82.000,226.376 84.214,225.913 85.800 C 225.656 86.680,225.194 87.799,224.886 88.286 C 224.495 88.905,224.291 90.814,224.210 94.619 C 224.074 100.955,223.812 101.535,221.901 99.730 C 221.185 99.054,219.610 97.847,218.400 97.047 C 217.190 96.247,215.848 95.324,215.419 94.996 C 214.989 94.668,214.475 94.400,214.276 94.400 C 214.078 94.400,213.381 93.950,212.727 93.400 C 212.073 92.850,211.310 92.400,211.031 92.400 C 210.752 92.400,210.198 92.040,209.800 91.600 C 209.402 91.160,208.784 90.800,208.427 90.800 C 208.070 90.800,207.335 90.485,206.793 90.100 C 206.251 89.715,204.546 88.760,203.004 87.978 C 201.462 87.195,199.840 86.370,199.400 86.143 C 198.506 85.683,195.327 84.198,192.000 82.687 C 190.790 82.137,188.978 81.308,187.974 80.844 C 186.969 80.380,185.866 80.000,185.523 80.000 C 185.179 80.000,184.678 79.735,184.409 79.411 C 184.140 79.086,183.263 78.705,182.460 78.562 C 181.657 78.419,180.460 77.984,179.800 77.594 C 179.140 77.205,177.970 76.757,177.200 76.600 C 176.430 76.443,175.239 75.973,174.553 75.557 C 173.867 75.141,172.877 74.799,172.353 74.798 C 171.829 74.796,170.866 74.517,170.214 74.177 C 169.034 73.561,165.552 72.489,161.027 71.349 C 159.723 71.020,158.334 70.579,157.942 70.369 C 157.549 70.159,155.827 69.724,154.114 69.403 C 152.401 69.082,150.016 68.544,148.813 68.209 C 147.610 67.874,145.810 67.598,144.813 67.595 C 143.816 67.593,142.010 67.304,140.800 66.953 C 133.422 64.814,118.434 65.993,110.200 69.359 C 107.449 70.483,103.200 73.607,103.200 74.504 C 103.200 74.709,102.797 75.442,102.305 76.133 C 101.025 77.931,101.051 86.594,102.349 90.343 C 102.817 91.696,103.201 93.297,103.202 93.902 C 103.204 94.506,103.487 95.540,103.832 96.200 C 104.177 96.860,104.712 98.366,105.020 99.548 C 105.329 100.729,105.742 101.899,105.938 102.148 C 106.135 102.396,106.527 103.320,106.809 104.200 C 107.332 105.828,108.225 107.823,109.622 110.479 C 110.050 111.293,110.400 112.210,110.400 112.517 C 110.400 112.825,110.750 113.393,111.177 113.779 C 111.605 114.166,112.066 114.992,112.203 115.614 C 112.340 116.236,112.701 116.952,113.005 117.204 C 113.310 117.457,113.762 118.280,114.011 119.032 C 114.259 119.784,114.616 120.400,114.804 120.400 C 114.992 120.400,115.273 120.805,115.428 121.300 C 115.583 121.795,116.135 122.709,116.655 123.331 C 117.175 123.953,117.600 124.718,117.600 125.031 C 117.600 125.344,117.741 125.600,117.914 125.600 C 118.086 125.600,118.561 126.165,118.969 126.855 C 119.377 127.546,120.001 128.427,120.355 128.815 C 120.710 129.202,121.450 130.180,122.000 130.988 C 124.462 134.604,131.773 142.565,135.125 145.280 C 136.816 146.650,138.299 147.909,138.419 148.078 C 138.836 148.663,142.600 151.200,143.050 151.200 C 143.299 151.200,143.739 151.485,144.028 151.834 C 144.318 152.183,145.240 152.743,146.077 153.078 C 146.915 153.413,147.600 153.827,147.600 153.999 C 147.600 154.171,148.265 154.436,149.078 154.588 C 149.890 154.741,151.195 155.198,151.978 155.605 C 152.760 156.012,154.930 156.548,156.800 156.796 C 161.656 157.440,161.882 157.507,162.107 158.364 C 162.219 158.794,161.913 159.730,161.420 160.469 C 158.933 164.195,158.400 165.078,158.400 165.468 C 158.400 165.701,158.065 166.321,157.655 166.846 C 157.245 167.371,156.771 168.250,156.600 168.800 C 156.429 169.350,155.955 170.229,155.545 170.754 C 155.135 171.279,154.794 171.999,154.787 172.354 C 154.781 172.709,154.332 173.900,153.791 175.000 C 153.250 176.100,152.806 177.365,152.804 177.811 C 152.802 178.257,152.536 178.999,152.213 179.460 C 151.890 179.921,151.516 181.086,151.383 182.049 C 151.249 183.012,150.804 184.790,150.393 186.000 C 148.284 192.213,148.315 209.507,150.444 213.684 C 150.860 214.500,151.200 215.453,151.200 215.801 C 151.200 217.288,154.648 223.442,157.200 226.508 C 159.789 229.620,165.300 233.887,167.659 234.607 C 168.176 234.765,168.870 235.128,169.200 235.413 C 169.994 236.098,174.095 237.566,176.600 238.061 C 177.700 238.278,179.590 238.758,180.800 239.128 C 184.017 240.111,202.448 240.116,205.400 239.135 C 206.500 238.770,208.120 238.369,209.000 238.245 C 209.880 238.121,211.313 237.655,212.185 237.210 C 213.056 236.764,214.046 236.396,214.385 236.391 C 214.723 236.386,215.450 236.030,216.000 235.600 C 216.550 235.170,217.161 234.814,217.359 234.809 C 218.401 234.783,226.615 228.286,227.144 227.069 C 227.223 226.887,227.763 226.222,228.344 225.591 C 230.176 223.601,231.955 221.058,233.096 218.800 C 233.373 218.250,234.229 216.630,234.998 215.200 C 235.766 213.770,236.397 212.420,236.400 212.200 C 236.403 211.980,236.693 211.260,237.044 210.600 C 237.772 209.233,238.922 206.108,239.988 202.600 C 240.389 201.280,240.905 199.660,241.134 199.000 C 241.785 197.130,242.827 193.202,243.256 191.000 C 243.470 189.900,243.921 188.190,244.259 187.200 C 244.597 186.210,245.049 184.242,245.263 182.827 C 245.639 180.343,247.062 175.584,247.768 174.449 C 248.305 173.585,248.765 174.734,249.059 177.670 C 249.198 179.061,249.539 180.652,249.817 181.205 C 250.095 181.758,250.542 183.378,250.811 184.805 C 251.080 186.232,251.520 187.760,251.789 188.200 C 252.059 188.640,252.404 189.673,252.557 190.494 C 252.709 191.316,253.183 192.756,253.608 193.694 C 254.034 194.633,254.386 195.763,254.391 196.206 C 254.396 196.649,254.735 197.639,255.144 198.406 C 255.553 199.173,256.020 200.250,256.181 200.800 C 257.909 206.696,263.335 215.625,264.490 214.470 C 265.051 213.909,264.696 198.101,264.098 196.982 C 263.857 196.534,263.463 194.644,263.221 192.783 C 262.979 190.922,262.533 188.680,262.230 187.800 C 261.928 186.920,261.474 185.080,261.222 183.711 C 260.970 182.342,260.503 180.722,260.185 180.111 C 259.866 179.500,259.604 178.588,259.602 178.084 C 259.601 177.580,259.226 176.434,258.768 175.538 C 256.936 171.947,258.091 171.493,261.068 174.635 C 266.189 180.039,273.091 187.035,275.612 189.374 C 279.288 192.786,289.243 200.800,289.806 200.800 C 289.959 200.800,290.619 201.250,291.273 201.800 C 291.927 202.350,292.690 202.800,292.969 202.800 C 293.248 202.800,293.802 203.160,294.200 203.600 C 294.598 204.040,295.234 204.400,295.613 204.400 C 295.992 204.400,296.518 204.661,296.783 204.980 C 297.048 205.298,297.925 205.771,298.732 206.031 C 299.539 206.291,300.650 206.746,301.200 207.043 C 308.922 211.210,324.648 211.292,331.200 207.199 C 331.530 206.993,332.520 206.460,333.400 206.015 C 334.911 205.250,335.414 204.938,338.240 203.008 C 338.878 202.573,340.120 201.540,341.000 200.713 C 341.880 199.885,342.723 199.207,342.874 199.204 C 343.813 199.190,353.139 187.897,355.384 184.057 C 355.595 183.696,356.065 182.947,356.428 182.392 C 356.791 181.838,357.224 180.938,357.391 180.392 C 357.558 179.847,357.929 179.130,358.216 178.800 C 358.503 178.470,358.863 177.660,359.016 177.000 C 359.170 176.340,359.541 175.406,359.841 174.923 C 360.770 173.433,361.778 167.204,361.770 163.000 C 361.758 156.357,360.563 151.946,357.220 146.200 C 356.579 145.100,355.875 143.814,355.654 143.342 C 355.433 142.870,355.105 142.420,354.926 142.342 C 354.747 142.264,353.846 141.210,352.925 140.000 C 349.904 136.034,340.610 127.489,338.000 126.278 C 337.670 126.125,336.590 125.374,335.600 124.609 C 334.610 123.844,333.260 122.950,332.600 122.623 C 331.940 122.295,330.680 121.581,329.800 121.035 C 326.747 119.141,324.593 117.933,323.300 117.388 C 321.611 116.677,321.656 116.338,323.739 114.083 C 325.611 112.056,326.106 111.464,327.989 109.000 C 328.662 108.120,329.494 107.040,329.837 106.600 C 331.051 105.046,333.817 100.495,335.200 97.777 C 335.970 96.263,336.825 94.781,337.100 94.484 C 337.375 94.186,337.600 93.713,337.600 93.431 C 337.600 93.149,338.050 92.073,338.600 91.038 C 339.150 90.004,339.600 88.888,339.600 88.558 C 339.600 88.228,339.946 87.293,340.368 86.479 C 341.721 83.876,344.588 75.220,345.018 72.441 C 345.303 70.596,346.195 68.155,346.897 67.293 C 347.371 66.710,349.638 69.062,354.577 75.264 C 356.214 77.319,357.924 79.379,358.377 79.842 C 358.830 80.305,359.200 80.859,359.200 81.072 C 359.200 81.286,359.650 81.883,360.200 82.400 C 360.750 82.917,361.200 83.508,361.200 83.714 C 361.200 83.920,361.896 84.924,362.746 85.944 C 363.596 86.965,364.411 88.181,364.556 88.647 C 364.702 89.113,365.176 89.816,365.610 90.209 C 366.045 90.602,366.400 91.138,366.400 91.400 C 366.400 91.662,366.755 92.198,367.190 92.591 C 367.624 92.984,368.097 93.677,368.241 94.130 C 368.385 94.584,369.102 95.807,369.834 96.848 C 370.566 97.890,371.434 99.385,371.762 100.171 C 372.091 100.957,372.529 101.600,372.736 101.600 C 372.944 101.600,373.237 102.094,373.389 102.698 C 373.540 103.302,373.875 104.046,374.132 104.351 C 374.644 104.959,375.081 105.776,378.500 112.520 C 379.765 115.015,380.800 117.285,380.800 117.565 C 380.800 117.845,381.160 118.531,381.600 119.091 C 382.040 119.650,382.400 120.439,382.400 120.844 C 382.400 121.249,382.759 122.170,383.199 122.890 C 383.638 123.611,383.998 124.458,383.999 124.774 C 383.999 125.089,384.342 126.079,384.760 126.974 C 385.178 127.868,385.744 129.320,386.017 130.200 C 386.290 131.080,386.758 132.155,387.057 132.589 C 387.356 133.023,387.600 133.746,387.600 134.195 C 387.600 134.644,387.965 135.692,388.410 136.523 C 388.856 137.354,389.332 138.850,389.469 139.847 C 389.605 140.845,390.051 142.315,390.459 143.115 C 390.866 143.915,391.200 144.986,391.200 145.495 C 391.200 146.004,391.558 147.439,391.996 148.685 C 392.434 149.931,392.906 151.862,393.045 152.975 C 393.183 154.089,393.535 155.540,393.827 156.200 C 394.119 156.860,394.625 159.110,394.951 161.200 C 395.278 163.290,395.728 165.720,395.953 166.600 C 396.177 167.480,396.551 170.203,396.784 172.651 C 397.017 175.098,397.431 177.708,397.704 178.451 C 398.561 180.781,398.399 219.441,397.518 222.800 C 397.143 224.230,396.726 227.020,396.592 229.000 C 396.458 230.980,396.110 233.320,395.818 234.200 C 395.527 235.080,395.066 237.420,394.795 239.400 C 394.523 241.380,394.077 243.450,393.805 244.000 C 393.532 244.550,393.193 245.911,393.051 247.025 C 392.909 248.138,392.434 250.069,391.996 251.315 C 391.558 252.561,391.200 254.042,391.200 254.606 C 391.200 255.170,390.865 256.300,390.456 257.116 C 390.047 257.932,389.594 259.372,389.449 260.315 C 389.304 261.258,388.829 262.695,388.393 263.509 C 387.957 264.322,387.600 265.313,387.600 265.710 C 387.600 266.107,387.240 267.138,386.800 268.000 C 386.360 268.862,386.000 269.807,386.000 270.099 C 386.000 270.392,385.640 271.337,385.200 272.200 C 384.760 273.063,384.400 274.007,384.400 274.298 C 384.400 274.589,383.950 275.715,383.400 276.800 C 382.850 277.885,382.400 279.025,382.400 279.333 C 382.400 279.640,382.055 280.331,381.633 280.867 C 381.211 281.404,380.741 282.510,380.588 283.326 C 380.435 284.141,380.150 284.907,379.955 285.028 C 379.760 285.148,378.856 286.811,377.946 288.724 C 377.037 290.636,376.161 292.290,376.000 292.400 C 375.839 292.510,375.573 293.050,375.408 293.600 C 375.243 294.150,374.789 294.960,374.400 295.400 C 374.011 295.840,373.556 296.650,373.391 297.200 C 373.225 297.750,372.755 298.629,372.345 299.154 C 371.935 299.679,371.600 300.326,371.600 300.592 C 371.600 300.858,371.240 301.402,370.800 301.800 C 370.360 302.198,369.997 302.721,369.993 302.962 C 369.987 303.333,368.334 306.064,367.307 307.400 C 366.788 308.076,364.653 311.248,364.215 311.996 C 363.041 313.996,359.952 318.368,358.946 319.453 C 358.315 320.132,357.179 321.568,356.421 322.644 C 355.662 323.720,354.923 324.690,354.778 324.800 C 354.633 324.910,353.581 326.126,352.441 327.502 C 349.303 331.288,349.324 331.266,341.293 339.400 C 333.141 347.656,330.017 350.533,324.800 354.589 C 322.930 356.043,320.975 357.624,320.454 358.102 C 319.934 358.580,319.195 359.158,318.812 359.386 C 318.428 359.614,317.342 360.340,316.397 361.000 C 315.453 361.660,314.395 362.380,314.046 362.600 C 313.698 362.820,313.174 363.315,312.883 363.700 C 312.593 364.085,312.109 364.400,311.808 364.400 C 311.507 364.400,310.751 364.805,310.128 365.300 C 308.816 366.341,307.972 366.882,305.927 367.990 C 305.117 368.429,304.340 368.974,304.200 369.200 C 304.060 369.427,303.373 369.878,302.673 370.203 C 301.973 370.527,300.500 371.331,299.400 371.988 C 298.300 372.646,296.103 373.822,294.517 374.602 C 292.932 375.382,291.526 376.195,291.394 376.410 C 291.261 376.624,290.838 376.800,290.454 376.800 C 290.070 376.800,289.145 377.250,288.400 377.800 C 287.655 378.350,286.657 378.800,286.184 378.800 C 285.711 378.800,284.998 379.160,284.600 379.600 C 284.202 380.040,283.677 380.400,283.435 380.400 C 283.192 380.400,282.148 380.850,281.115 381.400 C 280.082 381.950,279.003 382.406,278.718 382.413 C 278.433 382.419,277.300 382.868,276.200 383.409 C 275.100 383.950,273.907 384.394,273.549 384.396 C 273.191 384.398,272.690 384.651,272.435 384.958 C 272.180 385.265,271.303 385.637,270.486 385.784 C 269.669 385.931,268.280 386.366,267.400 386.750 C 264.857 387.861,261.977 388.837,259.600 389.395 C 258.390 389.678,256.860 390.200,256.200 390.553 C 255.540 390.906,254.499 391.196,253.887 391.198 C 253.275 391.199,252.116 391.475,251.312 391.811 C 250.507 392.147,248.347 392.684,246.511 393.004 C 244.675 393.325,242.843 393.763,242.440 393.979 C 242.037 394.194,240.018 394.566,237.954 394.806 C 235.889 395.045,233.570 395.481,232.800 395.774 C 232.030 396.066,229.150 396.439,226.400 396.602 C 223.650 396.765,220.950 397.070,220.400 397.280 C 217.058 398.556,183.583 398.520,180.274 397.237 C 179.655 396.996,178.210 396.800,177.063 396.800 C 174.165 396.800,168.517 396.061,166.600 395.430 C 165.720 395.141,163.565 394.780,161.811 394.627 C 160.057 394.475,158.404 394.169,158.136 393.947 C 157.869 393.725,156.172 393.286,154.364 392.970 C 152.557 392.655,150.880 392.233,150.639 392.034 C 150.398 391.835,149.480 391.553,148.600 391.407 C 147.098 391.159,144.925 390.533,140.200 388.989 C 139.100 388.629,137.300 388.079,136.200 387.765 C 135.100 387.451,133.633 386.926,132.940 386.597 C 132.246 386.269,131.436 385.994,131.140 385.987 C 130.843 385.981,129.700 385.532,128.600 384.991 C 127.500 384.450,126.330 384.004,126.000 384.001 C 125.670 383.998,124.860 383.637,124.200 383.200 C 123.540 382.763,122.617 382.404,122.149 382.403 C 121.681 382.401,121.075 382.131,120.802 381.803 C 120.530 381.474,119.564 381.006,118.657 380.762 C 117.750 380.517,116.528 379.976,115.942 379.559 C 115.356 379.141,114.729 378.800,114.549 378.800 C 114.105 378.800,105.792 374.594,103.800 373.362 C 102.920 372.818,101.660 372.102,101.000 371.771 C 100.340 371.441,98.990 370.646,98.000 370.005 C 97.010 369.364,95.615 368.541,94.900 368.175 C 94.185 367.808,93.600 367.367,93.600 367.194 C 93.600 367.020,93.105 366.682,92.500 366.443 C 91.895 366.203,90.590 365.376,89.600 364.605 C 88.610 363.834,87.398 363.028,86.908 362.814 C 86.417 362.601,84.797 361.476,83.308 360.315 C 81.818 359.154,80.420 358.067,80.200 357.900 C 70.890 350.803,56.694 337.565,50.996 330.668 C 48.526 327.678,44.777 323.117,43.792 321.903 C 43.567 321.626,42.670 320.410,41.799 319.200 C 40.927 317.990,40.064 316.936,39.881 316.858 C 39.698 316.780,39.379 316.330,39.173 315.858 C 38.966 315.386,38.168 314.190,37.400 313.200 C 36.632 312.210,35.834 311.012,35.626 310.539 C 35.419 310.065,35.040 309.548,34.784 309.390 C 34.528 309.232,34.060 308.539,33.743 307.851 C 33.427 307.163,32.633 305.880,31.979 305.000 C 31.324 304.120,30.513 302.860,30.177 302.200 C 29.840 301.540,29.044 300.100,28.407 299.000 C 27.771 297.900,26.508 295.560,25.600 293.800 C 24.692 292.040,23.432 289.610,22.800 288.400 C 22.168 287.190,21.374 285.570,21.034 284.800 C 20.694 284.030,20.259 283.130,20.067 282.800 C 19.403 281.660,18.408 279.394,17.800 277.635 C 17.464 276.664,17.035 275.674,16.847 275.435 C 16.658 275.196,16.287 274.280,16.022 273.400 C 15.757 272.520,15.300 271.260,15.007 270.600 C 14.514 269.489,13.523 266.747,11.826 261.800 C 11.449 260.700,10.906 258.765,10.620 257.501 C 10.334 256.237,9.909 254.972,9.676 254.691 C 9.442 254.410,9.129 253.195,8.980 251.990 C 8.830 250.786,8.468 249.416,8.176 248.947 C 7.883 248.478,7.427 246.498,7.162 244.547 C 6.898 242.596,6.491 240.757,6.259 240.461 C 6.027 240.165,5.532 237.825,5.158 235.261 C 4.785 232.697,4.282 229.430,4.041 228.000 C 2.433 218.455,1.828 192.915,2.976 183.000 C 3.103 181.900,3.396 178.750,3.627 176.000 C 3.858 173.250,4.293 170.100,4.594 169.000 C 4.895 167.900,5.263 165.570,5.412 163.823 C 5.561 162.075,5.920 160.275,6.209 159.823 C 6.499 159.370,6.861 157.920,7.014 156.600 C 7.166 155.280,7.631 153.216,8.046 152.014 C 8.461 150.811,8.808 149.371,8.818 148.814 C 8.827 148.256,9.111 147.080,9.448 146.200 C 9.785 145.320,10.286 143.610,10.561 142.400 C 10.836 141.190,11.304 139.750,11.601 139.200 C 11.897 138.650,12.280 137.570,12.450 136.800 C 12.771 135.349,14.234 131.239,15.298 128.800 C 15.634 128.030,16.034 126.815,16.186 126.100 C 16.339 125.385,16.622 124.800,16.816 124.800 C 17.010 124.800,17.373 124.035,17.622 123.100 C 17.871 122.165,18.297 121.130,18.568 120.800 C 18.840 120.470,19.274 119.456,19.533 118.547 C 19.792 117.639,20.273 116.672,20.602 116.398 C 20.931 116.125,21.200 115.689,21.200 115.430 C 21.200 114.801,27.101 103.176,27.830 102.369 C 28.143 102.021,28.400 101.534,28.400 101.286 C 28.400 101.038,28.850 100.172,29.400 99.362 C 29.950 98.551,30.400 97.666,30.400 97.393 C 30.400 97.121,30.689 96.658,31.042 96.365 C 31.395 96.073,31.849 95.465,32.052 95.016 C 32.255 94.567,32.869 93.570,33.416 92.800 C 33.964 92.030,34.635 91.060,34.906 90.644 C 35.178 90.229,35.805 89.393,36.300 88.787 C 36.795 88.180,37.200 87.508,37.200 87.293 C 37.200 86.935,38.080 85.741,42.779 79.723 C 43.670 78.581,44.400 77.527,44.400 77.381 C 44.400 77.235,44.850 76.761,45.400 76.329 C 45.950 75.896,46.400 75.367,46.400 75.154 C 46.400 74.940,47.075 74.037,47.900 73.148 C 48.725 72.259,49.580 71.224,49.800 70.850 C 50.653 69.397,65.821 53.986,68.943 51.400 C 70.005 50.520,71.731 49.035,72.779 48.100 C 73.826 47.165,74.838 46.400,75.027 46.400 C 75.217 46.400,75.738 46.037,76.186 45.593 C 76.634 45.149,78.260 43.799,79.800 42.592 C 81.340 41.386,82.870 40.163,83.200 39.875 C 83.694 39.444,86.230 37.707,91.543 34.161 C 95.732 31.366,98.149 29.898,101.000 28.419 C 101.880 27.962,103.320 27.158,104.200 26.632 C 105.080 26.106,108.590 24.293,112.000 22.602 C 115.410 20.912,119.037 19.095,120.059 18.565 C 121.081 18.034,122.237 17.600,122.627 17.600 C 123.018 17.600,123.653 17.314,124.040 16.964 C 124.426 16.614,125.518 16.154,126.465 15.941 C 127.413 15.728,128.461 15.314,128.794 15.021 C 129.127 14.729,130.030 14.361,130.800 14.205 C 131.570 14.049,132.562 13.693,133.004 13.414 C 133.446 13.136,134.756 12.704,135.915 12.456 C 137.074 12.207,138.423 11.750,138.911 11.440 C 139.400 11.130,140.590 10.750,141.556 10.594 C 142.522 10.438,144.052 9.975,144.956 9.564 C 145.860 9.154,147.088 8.814,147.685 8.809 C 148.282 8.804,149.639 8.458,150.700 8.039 C 151.761 7.621,153.697 7.145,155.002 6.982 C 156.308 6.819,157.921 6.461,158.588 6.185 C 159.254 5.910,161.508 5.464,163.596 5.196 C 165.684 4.927,167.844 4.529,168.396 4.312 C 169.308 3.952,175.752 3.238,184.868 2.486 C 186.775 2.329,188.482 2.053,188.661 1.874 C 189.083 1.450,211.574 1.830,216.000 2.336 M66.871 262.633 C 57.189 266.376,55.438 281.731,64.133 286.649 C 66.405 287.935,69.971 289.600,70.457 289.604 C 70.756 289.606,71.900 290.050,73.000 290.591 C 74.100 291.132,75.147 291.581,75.327 291.587 C 77.797 291.682,80.080 296.751,78.956 299.643 C 78.018 302.057,77.845 302.227,75.692 302.837 C 71.190 304.114,67.600 301.785,67.600 297.587 C 67.600 295.024,67.228 294.800,62.982 294.800 C 58.055 294.800,57.807 295.059,58.378 299.610 C 59.243 306.512,62.438 309.181,71.471 310.547 C 73.799 310.900,80.910 309.446,83.080 308.174 C 87.588 305.532,89.000 302.677,89.000 296.200 C 89.000 289.457,87.255 286.761,81.000 283.838 C 79.680 283.222,77.682 282.286,76.560 281.758 C 75.438 281.231,74.245 280.800,73.909 280.800 C 73.573 280.800,73.089 280.548,72.833 280.239 C 72.577 279.931,71.948 279.573,71.435 279.445 C 68.851 278.796,67.336 274.470,68.734 271.730 C 71.315 266.670,77.576 268.013,78.378 273.800 L 78.600 275.400 82.640 275.513 C 85.798 275.602,86.786 275.499,87.165 275.042 C 87.889 274.170,87.104 269.112,86.034 267.752 C 85.575 267.169,85.193 266.491,85.185 266.246 C 85.160 265.526,82.166 263.656,79.331 262.588 C 75.670 261.210,70.504 261.229,66.871 262.633 M92.100 263.082 C 91.053 263.284,91.136 263.011,91.001 266.690 C 90.866 270.356,90.854 270.348,96.424 270.486 L 101.000 270.600 101.200 289.800 L 101.400 309.000 105.800 309.000 L 110.200 309.000 110.304 290.236 C 110.375 277.461,110.547 271.305,110.843 270.949 C 111.145 270.585,112.701 270.390,115.939 270.312 L 120.600 270.200 120.718 267.062 C 120.791 265.093,120.661 263.715,120.369 263.362 C 119.919 262.820,94.753 262.571,92.100 263.082 M124.814 263.574 C 124.115 264.880,124.254 308.181,124.960 308.767 C 125.321 309.066,126.846 309.190,129.260 309.116 L 133.000 309.000 133.200 293.800 C 133.433 276.094,134.011 272.870,135.407 281.494 C 135.719 283.422,136.250 285.984,136.587 287.187 C 136.924 288.390,137.200 289.871,137.200 290.479 C 137.200 291.087,137.460 292.262,137.778 293.092 C 138.096 293.921,138.633 296.040,138.972 297.800 C 139.310 299.560,139.771 301.720,139.996 302.600 C 140.221 303.480,140.596 305.229,140.828 306.487 C 141.318 309.135,141.761 309.345,146.384 309.124 L 148.967 309.000 149.281 307.400 C 149.453 306.520,149.943 304.450,150.369 302.800 C 150.795 301.150,151.336 298.855,151.572 297.700 C 151.807 296.545,152.193 294.655,152.428 293.500 C 152.664 292.345,153.195 290.050,153.607 288.400 C 154.020 286.750,154.471 284.500,154.608 283.400 C 154.981 280.407,155.234 279.600,155.797 279.600 C 156.690 279.600,156.789 281.118,156.795 294.886 C 156.801 310.633,156.322 309.300,161.903 309.116 L 165.400 309.000 165.503 286.445 C 165.578 270.120,165.482 263.740,165.154 263.345 C 164.539 262.604,153.860 262.580,152.400 263.316 C 151.558 263.741,151.358 264.199,151.137 266.211 C 150.992 267.525,150.668 269.230,150.418 270.000 C 150.168 270.770,149.707 272.930,149.394 274.800 C 149.082 276.670,148.550 279.184,148.213 280.387 C 147.876 281.590,147.600 283.104,147.600 283.752 C 147.600 284.861,147.361 285.856,145.739 291.500 L 145.078 293.800 144.574 292.600 C 144.296 291.940,143.944 290.140,143.790 288.600 C 143.637 287.060,143.287 285.253,143.012 284.584 C 142.736 283.916,142.377 282.116,142.213 280.584 C 142.049 279.053,141.577 276.720,141.163 275.400 C 140.749 274.080,140.402 272.460,140.391 271.800 C 140.371 270.499,138.774 264.114,138.265 263.300 C 137.679 262.361,125.329 262.612,124.814 263.574 M251.246 263.345 C 250.918 263.740,250.822 270.120,250.897 286.445 L 251.000 309.000 255.200 309.000 L 259.400 309.000 259.600 293.320 C 259.805 277.267,260.170 273.816,261.133 278.858 C 261.357 280.036,261.744 281.990,261.992 283.200 C 262.239 284.410,262.770 287.020,263.171 289.000 C 263.571 290.980,264.102 293.107,264.350 293.726 C 264.597 294.345,264.800 295.341,264.800 295.939 C 264.800 296.537,265.080 298.010,265.423 299.213 C 266.074 301.497,266.609 303.967,267.001 306.487 C 267.362 308.813,268.010 309.200,271.549 309.200 C 274.953 309.200,275.600 308.866,275.600 307.107 C 275.600 306.484,275.849 305.378,276.153 304.650 C 276.457 303.922,276.919 301.993,277.180 300.363 C 277.440 298.733,277.893 296.767,278.186 295.993 C 278.479 295.219,278.849 293.509,279.008 292.193 C 279.167 290.877,279.540 289.205,279.838 288.477 C 280.135 287.749,280.483 286.219,280.611 285.077 C 281.063 281.037,281.628 279.457,282.359 280.187 C 282.918 280.745,283.015 282.618,283.115 294.771 L 283.229 308.714 284.115 308.952 C 285.278 309.264,290.558 309.268,291.367 308.957 C 292.455 308.540,292.317 263.798,291.226 263.214 C 290.196 262.663,280.457 262.682,278.860 263.239 C 277.806 263.607,277.600 263.884,277.600 264.940 C 277.600 265.634,277.152 268.001,276.605 270.201 C 276.057 272.400,275.607 274.762,275.605 275.450 C 275.602 276.137,275.348 277.412,275.041 278.284 C 274.734 279.155,274.285 281.203,274.044 282.834 C 273.535 286.278,271.610 293.200,271.161 293.200 C 270.738 293.200,270.504 292.241,270.184 289.200 C 270.033 287.770,269.652 285.832,269.337 284.893 C 269.021 283.954,268.603 281.794,268.407 280.093 C 268.211 278.392,267.792 276.370,267.476 275.600 C 267.160 274.830,266.779 273.030,266.629 271.600 C 266.377 269.190,265.587 265.846,264.763 263.700 C 264.335 262.586,252.141 262.266,251.246 263.345 M300.600 263.069 C 298.748 263.572,298.800 262.899,298.800 286.169 C 298.800 311.656,298.283 309.200,303.647 309.200 C 309.295 309.200,308.794 310.024,308.840 300.657 C 308.890 290.508,308.861 290.624,311.416 290.515 C 316.256 290.309,320.957 289.470,322.371 288.560 C 324.309 287.312,327.195 284.340,327.198 283.589 C 327.199 283.253,327.515 282.533,327.900 281.989 C 328.734 280.811,328.934 272.541,328.152 271.561 C 327.906 271.253,327.501 270.369,327.253 269.597 C 326.662 267.758,324.177 265.233,321.744 264.000 C 319.832 263.031,303.403 262.307,300.600 263.069 M345.000 263.089 C 343.801 263.384,343.201 264.000,343.188 264.949 C 343.160 267.004,338.208 270.400,335.240 270.400 C 332.613 270.400,332.400 270.611,332.400 273.210 C 332.400 276.870,332.314 276.800,336.819 276.800 C 339.527 276.800,340.854 276.956,341.076 277.300 C 341.254 277.575,341.490 284.820,341.600 293.400 L 341.800 309.000 345.800 309.101 C 348.000 309.157,350.019 309.060,350.287 308.886 C 351.182 308.303,351.048 263.971,350.150 263.314 C 349.467 262.815,346.621 262.691,345.000 263.089 M182.200 263.573 C 175.777 264.862,169.354 275.138,174.730 275.524 C 176.910 275.681,177.448 275.228,177.696 273.024 C 178.287 267.784,185.047 264.914,189.269 268.111 C 195.232 272.626,193.051 281.841,185.709 283.153 C 181.946 283.825,180.138 286.054,182.944 286.562 C 190.124 287.860,190.516 288.021,192.457 290.473 C 194.099 292.548,194.529 299.912,193.100 301.490 C 192.715 301.915,192.400 302.459,192.400 302.698 C 192.400 303.559,189.131 305.716,187.310 306.056 C 181.603 307.123,178.067 304.635,176.144 298.200 C 175.756 296.902,173.692 296.294,172.639 297.167 C 171.911 297.772,172.580 302.288,173.604 303.684 C 174.042 304.280,174.400 304.879,174.400 305.015 C 174.400 305.336,176.664 307.600,176.985 307.600 C 177.121 307.600,177.780 308.005,178.450 308.500 C 180.194 309.790,189.543 309.865,191.418 308.605 C 192.068 308.168,192.954 307.625,193.387 307.399 C 196.756 305.644,199.562 296.856,198.045 292.814 C 197.836 292.256,197.561 291.320,197.433 290.733 C 197.134 289.356,194.661 286.605,193.165 285.985 C 191.522 285.305,191.622 283.983,193.421 282.611 C 197.673 279.368,197.884 271.174,193.833 266.698 C 191.441 264.056,186.461 262.718,182.200 263.573 M213.400 263.546 C 210.715 264.198,206.400 266.804,206.400 267.774 C 206.400 267.980,206.059 268.520,205.642 268.974 C 204.558 270.156,203.027 276.310,203.635 277.042 C 205.072 278.774,208.000 277.417,208.000 275.020 C 208.000 269.339,215.710 264.454,219.709 267.600 C 220.269 268.040,220.901 268.400,221.116 268.400 C 221.844 268.400,223.561 271.091,224.036 272.979 C 225.503 278.805,222.457 284.574,215.369 289.395 C 213.728 290.511,206.400 297.895,206.400 298.433 C 206.400 298.677,206.047 299.372,205.616 299.978 C 204.230 301.924,202.790 308.294,203.616 308.822 C 203.953 309.037,209.441 309.153,216.600 309.097 L 229.000 309.000 229.125 307.700 C 229.316 305.726,228.387 305.553,217.953 305.622 C 208.108 305.688,207.872 305.651,208.252 304.134 C 209.094 300.780,211.573 297.778,217.400 293.055 C 228.066 284.409,230.318 279.867,228.029 271.609 C 226.377 265.645,219.766 262.002,213.400 263.546 M317.208 271.442 C 319.430 273.702,319.442 279.652,317.228 281.773 C 315.699 283.238,310.229 283.802,309.340 282.586 C 308.443 281.359,308.580 270.976,309.500 270.406 C 310.978 269.490,315.944 270.157,317.208 271.442 " stroke="none" fill="#fbfbfb" fill-rule="evenodd"></path><path id="path1" d="M188.661 1.874 C 188.482 2.053,186.775 2.329,184.868 2.486 C 175.752 3.238,169.308 3.952,168.396 4.312 C 167.844 4.529,165.684 4.927,163.596 5.196 C 161.508 5.464,159.254 5.910,158.588 6.185 C 157.921 6.461,156.308 6.819,155.002 6.982 C 153.697 7.145,151.761 7.621,150.700 8.039 C 149.639 8.458,148.282 8.804,147.685 8.809 C 147.088 8.814,145.860 9.154,144.956 9.564 C 144.052 9.975,142.522 10.438,141.556 10.594 C 140.590 10.750,139.400 11.130,138.911 11.440 C 138.423 11.750,137.074 12.207,135.915 12.456 C 134.756 12.704,133.446 13.136,133.004 13.414 C 132.562 13.693,131.570 14.049,130.800 14.205 C 130.030 14.361,129.127 14.729,128.794 15.021 C 128.461 15.314,127.413 15.728,126.465 15.941 C 125.518 16.154,124.426 16.614,124.040 16.964 C 123.653 17.314,123.018 17.600,122.627 17.600 C 122.237 17.600,121.081 18.034,120.059 18.565 C 119.037 19.095,115.410 20.912,112.000 22.602 C 108.590 24.293,105.080 26.106,104.200 26.632 C 103.320 27.158,101.880 27.962,101.000 28.419 C 98.149 29.898,95.732 31.366,91.543 34.161 C 86.230 37.707,83.694 39.444,83.200 39.875 C 82.870 40.163,81.340 41.386,79.800 42.592 C 78.260 43.799,76.634 45.149,76.186 45.593 C 75.738 46.037,75.217 46.400,75.027 46.400 C 74.838 46.400,73.826 47.165,72.779 48.100 C 71.731 49.035,70.005 50.520,68.943 51.400 C 65.821 53.986,50.653 69.397,49.800 70.850 C 49.580 71.224,48.725 72.259,47.900 73.148 C 47.075 74.037,46.400 74.940,46.400 75.154 C 46.400 75.367,45.950 75.896,45.400 76.329 C 44.850 76.761,44.400 77.235,44.400 77.381 C 44.400 77.527,43.670 78.581,42.779 79.723 C 38.080 85.741,37.200 86.935,37.200 87.293 C 37.200 87.508,36.795 88.180,36.300 88.787 C 35.805 89.393,35.178 90.229,34.906 90.644 C 34.635 91.060,33.964 92.030,33.416 92.800 C 32.869 93.570,32.255 94.567,32.052 95.016 C 31.849 95.465,31.395 96.073,31.042 96.365 C 30.689 96.658,30.400 97.121,30.400 97.393 C 30.400 97.666,29.950 98.551,29.400 99.362 C 28.850 100.172,28.400 101.038,28.400 101.286 C 28.400 101.534,28.143 102.021,27.830 102.369 C 27.101 103.176,21.200 114.801,21.200 115.430 C 21.200 115.689,20.931 116.125,20.602 116.398 C 20.273 116.672,19.792 117.639,19.533 118.547 C 19.274 119.456,18.840 120.470,18.568 120.800 C 18.297 121.130,17.871 122.165,17.622 123.100 C 17.373 124.035,17.010 124.800,16.816 124.800 C 16.622 124.800,16.339 125.385,16.186 126.100 C 16.034 126.815,15.634 128.030,15.298 128.800 C 14.234 131.239,12.771 135.349,12.450 136.800 C 12.280 137.570,11.897 138.650,11.601 139.200 C 11.304 139.750,10.836 141.190,10.561 142.400 C 10.286 143.610,9.785 145.320,9.448 146.200 C 9.111 147.080,8.827 148.256,8.818 148.814 C 8.808 149.371,8.461 150.811,8.046 152.014 C 7.631 153.216,7.166 155.280,7.014 156.600 C 6.861 157.920,6.499 159.370,6.209 159.823 C 5.920 160.275,5.561 162.075,5.412 163.823 C 5.263 165.570,4.895 167.900,4.594 169.000 C 4.293 170.100,3.858 173.250,3.627 176.000 C 3.396 178.750,3.103 181.900,2.976 183.000 C 1.828 192.915,2.433 218.455,4.041 228.000 C 4.282 229.430,4.785 232.697,5.158 235.261 C 5.532 237.825,6.027 240.165,6.259 240.461 C 6.491 240.757,6.898 242.596,7.162 244.547 C 7.427 246.498,7.883 248.478,8.176 248.947 C 8.468 249.416,8.830 250.786,8.980 251.990 C 9.129 253.195,9.442 254.410,9.676 254.691 C 9.909 254.972,10.334 256.237,10.620 257.501 C 10.906 258.765,11.449 260.700,11.826 261.800 C 13.523 266.747,14.514 269.489,15.007 270.600 C 15.300 271.260,15.757 272.520,16.022 273.400 C 16.287 274.280,16.658 275.196,16.847 275.435 C 17.035 275.674,17.464 276.664,17.800 277.635 C 18.408 279.394,19.403 281.660,20.067 282.800 C 20.259 283.130,20.694 284.030,21.034 284.800 C 21.374 285.570,22.168 287.190,22.800 288.400 C 23.432 289.610,24.692 292.040,25.600 293.800 C 26.508 295.560,27.771 297.900,28.407 299.000 C 29.044 300.100,29.840 301.540,30.177 302.200 C 30.513 302.860,31.324 304.120,31.979 305.000 C 32.633 305.880,33.427 307.163,33.743 307.851 C 34.060 308.539,34.528 309.232,34.784 309.390 C 35.040 309.548,35.419 310.065,35.626 310.539 C 35.834 311.012,36.632 312.210,37.400 313.200 C 38.168 314.190,38.966 315.386,39.173 315.858 C 39.379 316.330,39.698 316.780,39.881 316.858 C 40.064 316.936,40.927 317.990,41.799 319.200 C 42.670 320.410,43.567 321.626,43.792 321.903 C 44.777 323.117,48.526 327.678,50.996 330.668 C 56.694 337.565,70.890 350.803,80.200 357.900 C 80.420 358.067,81.818 359.154,83.308 360.315 C 84.797 361.476,86.417 362.601,86.908 362.814 C 87.398 363.028,88.610 363.834,89.600 364.605 C 90.590 365.376,91.895 366.203,92.500 366.443 C 93.105 366.682,93.600 367.020,93.600 367.194 C 93.600 367.367,94.185 367.808,94.900 368.175 C 95.615 368.541,97.010 369.364,98.000 370.005 C 98.990 370.646,100.340 371.441,101.000 371.771 C 101.660 372.102,102.920 372.818,103.800 373.362 C 105.792 374.594,114.105 378.800,114.549 378.800 C 114.729 378.800,115.356 379.141,115.942 379.559 C 116.528 379.976,117.750 380.517,118.657 380.762 C 119.564 381.006,120.530 381.474,120.802 381.803 C 121.075 382.131,121.681 382.401,122.149 382.403 C 122.617 382.404,123.540 382.763,124.200 383.200 C 124.860 383.637,125.670 383.998,126.000 384.001 C 126.330 384.004,127.500 384.450,128.600 384.991 C 129.700 385.532,130.843 385.981,131.140 385.987 C 131.436 385.994,132.246 386.269,132.940 386.597 C 133.633 386.926,135.100 387.451,136.200 387.765 C 137.300 388.079,139.100 388.629,140.200 388.989 C 144.925 390.533,147.098 391.159,148.600 391.407 C 149.480 391.553,150.398 391.835,150.639 392.034 C 150.880 392.233,152.557 392.655,154.364 392.970 C 156.172 393.286,157.869 393.725,158.136 393.947 C 158.404 394.169,160.057 394.475,161.811 394.627 C 163.565 394.780,165.720 395.141,166.600 395.430 C 168.517 396.061,174.165 396.800,177.063 396.800 C 178.210 396.800,179.655 396.996,180.274 397.237 C 183.583 398.520,217.058 398.556,220.400 397.280 C 220.950 397.070,223.650 396.765,226.400 396.602 C 229.150 396.439,232.030 396.066,232.800 395.774 C 233.570 395.481,235.889 395.045,237.954 394.806 C 240.018 394.566,242.037 394.194,242.440 393.979 C 242.843 393.763,244.675 393.325,246.511 393.004 C 248.347 392.684,250.507 392.147,251.312 391.811 C 252.116 391.475,253.275 391.199,253.887 391.198 C 254.499 391.196,255.540 390.906,256.200 390.553 C 256.860 390.200,258.390 389.678,259.600 389.395 C 261.977 388.837,264.857 387.861,267.400 386.750 C 268.280 386.366,269.669 385.931,270.486 385.784 C 271.303 385.637,272.180 385.265,272.435 384.958 C 272.690 384.651,273.191 384.398,273.549 384.396 C 273.907 384.394,275.100 383.950,276.200 383.409 C 277.300 382.868,278.433 382.419,278.718 382.413 C 279.003 382.406,280.082 381.950,281.115 381.400 C 282.148 380.850,283.192 380.400,283.435 380.400 C 283.677 380.400,284.202 380.040,284.600 379.600 C 284.998 379.160,285.711 378.800,286.184 378.800 C 286.657 378.800,287.655 378.350,288.400 377.800 C 289.145 377.250,290.070 376.800,290.454 376.800 C 290.838 376.800,291.261 376.624,291.394 376.410 C 291.526 376.195,292.932 375.382,294.517 374.602 C 296.103 373.822,298.300 372.646,299.400 371.988 C 300.500 371.331,301.973 370.527,302.673 370.203 C 303.373 369.878,304.060 369.427,304.200 369.200 C 304.340 368.974,305.117 368.429,305.927 367.990 C 307.972 366.882,308.816 366.341,310.128 365.300 C 310.751 364.805,311.507 364.400,311.808 364.400 C 312.109 364.400,312.593 364.085,312.883 363.700 C 313.174 363.315,313.698 362.820,314.046 362.600 C 314.395 362.380,315.453 361.660,316.397 361.000 C 317.342 360.340,318.428 359.614,318.812 359.386 C 319.195 359.158,319.934 358.580,320.454 358.102 C 320.975 357.624,322.930 356.043,324.800 354.589 C 330.017 350.533,333.141 347.656,341.293 339.400 C 349.324 331.266,349.303 331.288,352.441 327.502 C 353.581 326.126,354.633 324.910,354.778 324.800 C 354.923 324.690,355.662 323.720,356.421 322.644 C 357.179 321.568,358.315 320.132,358.946 319.453 C 359.952 318.368,363.041 313.996,364.215 311.996 C 364.653 311.248,366.788 308.076,367.307 307.400 C 368.334 306.064,369.987 303.333,369.993 302.962 C 369.997 302.721,370.360 302.198,370.800 301.800 C 371.240 301.402,371.600 300.858,371.600 300.592 C 371.600 300.326,371.935 299.679,372.345 299.154 C 372.755 298.629,373.225 297.750,373.391 297.200 C 373.556 296.650,374.011 295.840,374.400 295.400 C 374.789 294.960,375.243 294.150,375.408 293.600 C 375.573 293.050,375.839 292.510,376.000 292.400 C 376.161 292.290,377.037 290.636,377.946 288.724 C 378.856 286.811,379.760 285.148,379.955 285.028 C 380.150 284.907,380.435 284.141,380.588 283.326 C 380.741 282.510,381.211 281.404,381.633 280.867 C 382.055 280.331,382.400 279.640,382.400 279.333 C 382.400 279.025,382.850 277.885,383.400 276.800 C 383.950 275.715,384.400 274.589,384.400 274.298 C 384.400 274.007,384.760 273.063,385.200 272.200 C 385.640 271.337,386.000 270.392,386.000 270.099 C 386.000 269.807,386.360 268.862,386.800 268.000 C 387.240 267.138,387.600 266.107,387.600 265.710 C 387.600 265.313,387.957 264.322,388.393 263.509 C 388.829 262.695,389.304 261.258,389.449 260.315 C 389.594 259.372,390.047 257.932,390.456 257.116 C 390.865 256.300,391.200 255.170,391.200 254.606 C 391.200 254.042,391.558 252.561,391.996 251.315 C 392.434 250.069,392.909 248.138,393.051 247.025 C 393.193 245.911,393.532 244.550,393.805 244.000 C 394.077 243.450,394.523 241.380,394.795 239.400 C 395.066 237.420,395.527 235.080,395.818 234.200 C 396.110 233.320,396.458 230.980,396.592 229.000 C 396.726 227.020,397.143 224.230,397.518 222.800 C 398.399 219.441,398.561 180.781,397.704 178.451 C 397.431 177.708,397.017 175.098,396.784 172.651 C 396.551 170.203,396.177 167.480,395.953 166.600 C 395.728 165.720,395.278 163.290,394.951 161.200 C 394.625 159.110,394.119 156.860,393.827 156.200 C 393.535 155.540,393.183 154.089,393.045 152.975 C 392.906 151.862,392.434 149.931,391.996 148.685 C 391.558 147.439,391.200 146.004,391.200 145.495 C 391.200 144.986,390.866 143.915,390.459 143.115 C 390.051 142.315,389.605 140.845,389.469 139.847 C 389.332 138.850,388.856 137.354,388.410 136.523 C 387.965 135.692,387.600 134.644,387.600 134.195 C 387.600 133.746,387.356 133.023,387.057 132.589 C 386.758 132.155,386.290 131.080,386.017 130.200 C 385.744 129.320,385.178 127.868,384.760 126.974 C 384.342 126.079,383.999 125.089,383.999 124.774 C 383.998 124.458,383.638 123.611,383.199 122.890 C 382.759 122.170,382.400 121.249,382.400 120.844 C 382.400 120.439,382.040 119.650,381.600 119.091 C 381.160 118.531,380.800 117.845,380.800 117.565 C 380.800 117.285,379.765 115.015,378.500 112.520 C 375.081 105.776,374.644 104.959,374.132 104.351 C 373.875 104.046,373.540 103.302,373.389 102.698 C 373.237 102.094,372.944 101.600,372.736 101.600 C 372.529 101.600,372.091 100.957,371.762 100.171 C 371.434 99.385,370.566 97.890,369.834 96.848 C 369.102 95.807,368.385 94.584,368.241 94.130 C 368.097 93.677,367.624 92.984,367.190 92.591 C 366.755 92.198,366.400 91.662,366.400 91.400 C 366.400 91.138,366.045 90.602,365.610 90.209 C 365.176 89.816,364.702 89.113,364.556 88.647 C 364.411 88.181,363.596 86.965,362.746 85.944 C 361.896 84.924,361.200 83.920,361.200 83.714 C 361.200 83.508,360.750 82.917,360.200 82.400 C 359.650 81.883,359.200 81.286,359.200 81.072 C 359.200 80.859,358.830 80.305,358.377 79.842 C 357.924 79.379,356.214 77.319,354.577 75.264 C 349.638 69.062,347.371 66.710,346.897 67.293 C 346.195 68.155,345.303 70.596,345.018 72.441 C 344.588 75.220,341.721 83.876,340.368 86.479 C 339.946 87.293,339.600 88.228,339.600 88.558 C 339.600 88.888,339.150 90.004,338.600 91.038 C 338.050 92.073,337.600 93.149,337.600 93.431 C 337.600 93.713,337.375 94.186,337.100 94.484 C 336.825 94.781,335.970 96.263,335.200 97.777 C 333.817 100.495,331.051 105.046,329.837 106.600 C 329.494 107.040,328.662 108.120,327.989 109.000 C 326.106 111.464,325.611 112.056,323.739 114.083 C 321.656 116.338,321.611 116.677,323.300 117.388 C 324.593 117.933,326.747 119.141,329.800 121.035 C 330.680 121.581,331.940 122.295,332.600 122.623 C 333.260 122.950,334.610 123.844,335.600 124.609 C 336.590 125.374,337.670 126.125,338.000 126.278 C 340.610 127.489,349.904 136.034,352.925 140.000 C 353.846 141.210,354.747 142.264,354.926 142.342 C 355.105 142.420,355.433 142.870,355.654 143.342 C 355.875 143.814,356.579 145.100,357.220 146.200 C 360.563 151.946,361.758 156.357,361.770 163.000 C 361.778 167.204,360.770 173.433,359.841 174.923 C 359.541 175.406,359.170 176.340,359.016 177.000 C 358.863 177.660,358.503 178.470,358.216 178.800 C 357.929 179.130,357.558 179.847,357.391 180.392 C 357.224 180.938,356.791 181.838,356.428 182.392 C 356.065 182.947,355.595 183.696,355.384 184.057 C 353.139 187.897,343.813 199.190,342.874 199.204 C 342.723 199.207,341.880 199.885,341.000 200.713 C 338.930 202.659,336.019 204.690,333.400 206.015 C 332.520 206.460,331.530 206.993,331.200 207.199 C 324.648 211.292,308.922 211.210,301.200 207.043 C 300.650 206.746,299.539 206.291,298.732 206.031 C 297.925 205.771,297.048 205.298,296.783 204.980 C 296.518 204.661,295.992 204.400,295.613 204.400 C 295.234 204.400,294.598 204.040,294.200 203.600 C 293.802 203.160,293.248 202.800,292.969 202.800 C 292.690 202.800,291.927 202.350,291.273 201.800 C 290.619 201.250,289.959 200.800,289.806 200.800 C 289.243 200.800,279.288 192.786,275.612 189.374 C 273.091 187.035,266.189 180.039,261.068 174.635 C 258.091 171.493,256.936 171.947,258.768 175.538 C 259.226 176.434,259.601 177.580,259.602 178.084 C 259.604 178.588,259.866 179.500,260.185 180.111 C 260.503 180.722,260.970 182.342,261.222 183.711 C 261.474 185.080,261.928 186.920,262.230 187.800 C 262.533 188.680,262.979 190.922,263.221 192.783 C 263.463 194.644,263.857 196.534,264.098 196.982 C 264.696 198.101,265.051 213.909,264.490 214.470 C 263.335 215.625,257.909 206.696,256.181 200.800 C 256.020 200.250,255.553 199.173,255.144 198.406 C 254.735 197.639,254.396 196.649,254.391 196.206 C 254.386 195.763,254.034 194.633,253.608 193.694 C 253.183 192.756,252.709 191.316,252.557 190.494 C 252.404 189.673,252.059 188.640,251.789 188.200 C 251.520 187.760,251.080 186.232,250.811 184.805 C 250.542 183.378,250.095 181.758,249.817 181.205 C 249.539 180.652,249.198 179.061,249.059 177.670 C 248.765 174.734,248.305 173.585,247.768 174.449 C 247.062 175.584,245.639 180.343,245.263 182.827 C 245.049 184.242,244.597 186.210,244.259 187.200 C 243.921 188.190,243.470 189.900,243.256 191.000 C 242.827 193.202,241.785 197.130,241.134 199.000 C 240.905 199.660,240.389 201.280,239.988 202.600 C 238.922 206.108,237.772 209.233,237.044 210.600 C 236.693 211.260,236.403 211.980,236.400 212.200 C 236.397 212.420,235.766 213.770,234.998 215.200 C 234.229 216.630,233.373 218.250,233.096 218.800 C 231.955 221.058,230.176 223.601,228.344 225.591 C 227.763 226.222,227.223 226.887,227.144 227.069 C 226.615 228.286,218.401 234.783,217.359 234.809 C 217.161 234.814,216.550 235.170,216.000 235.600 C 215.450 236.030,214.723 236.386,214.385 236.391 C 214.046 236.396,213.056 236.764,212.185 237.210 C 211.313 237.655,209.880 238.121,209.000 238.245 C 208.120 238.369,206.500 238.770,205.400 239.135 C 202.448 240.116,184.017 240.111,180.800 239.128 C 179.590 238.758,177.700 238.278,176.600 238.061 C 174.095 237.566,169.994 236.098,169.200 235.413 C 168.870 235.128,168.176 234.765,167.659 234.607 C 165.300 233.887,159.789 229.620,157.200 226.508 C 154.648 223.442,151.200 217.288,151.200 215.801 C 151.200 215.453,150.860 214.500,150.444 213.684 C 148.315 209.507,148.284 192.213,150.393 186.000 C 150.804 184.790,151.249 183.012,151.383 182.049 C 151.516 181.086,151.890 179.921,152.213 179.460 C 152.536 178.999,152.802 178.257,152.804 177.811 C 152.806 177.365,153.250 176.100,153.791 175.000 C 154.332 173.900,154.781 172.709,154.787 172.354 C 154.794 171.999,155.135 171.279,155.545 170.754 C 155.955 170.229,156.429 169.350,156.600 168.800 C 156.771 168.250,157.245 167.371,157.655 166.846 C 158.065 166.321,158.400 165.701,158.400 165.468 C 158.400 165.078,158.933 164.195,161.420 160.469 C 161.913 159.730,162.219 158.794,162.107 158.364 C 161.882 157.507,161.656 157.440,156.800 156.796 C 154.930 156.548,152.760 156.012,151.978 155.605 C 151.195 155.198,149.890 154.741,149.078 154.588 C 148.265 154.436,147.600 154.171,147.600 153.999 C 147.600 153.827,146.915 153.413,146.077 153.078 C 145.240 152.743,144.318 152.183,144.028 151.834 C 143.739 151.485,143.299 151.200,143.050 151.200 C 142.600 151.200,138.836 148.663,138.419 148.078 C 138.299 147.909,136.816 146.650,135.125 145.280 C 131.773 142.565,124.462 134.604,122.000 130.988 C 121.450 130.180,120.710 129.202,120.355 128.815 C 120.001 128.427,119.377 127.546,118.969 126.855 C 118.561 126.165,118.086 125.600,117.914 125.600 C 117.741 125.600,117.600 125.344,117.600 125.031 C 117.600 124.718,117.175 123.953,116.655 123.331 C 116.135 122.709,115.583 121.795,115.428 121.300 C 115.273 120.805,114.992 120.400,114.804 120.400 C 114.616 120.400,114.259 119.784,114.011 119.032 C 113.762 118.280,113.310 117.457,113.005 117.204 C 112.701 116.952,112.340 116.236,112.203 115.614 C 112.066 114.992,111.605 114.166,111.177 113.779 C 110.750 113.393,110.400 112.825,110.400 112.517 C 110.400 112.210,110.050 111.293,109.622 110.479 C 108.225 107.823,107.332 105.828,106.809 104.200 C 106.527 103.320,106.135 102.396,105.938 102.148 C 105.742 101.899,105.329 100.729,105.020 99.548 C 104.712 98.366,104.177 96.860,103.832 96.200 C 103.487 95.540,103.204 94.506,103.202 93.902 C 103.201 93.297,102.817 91.696,102.349 90.343 C 101.051 86.594,101.025 77.931,102.305 76.133 C 102.797 75.442,103.200 74.709,103.200 74.504 C 103.200 73.607,107.449 70.483,110.200 69.359 C 118.434 65.993,133.422 64.814,140.800 66.953 C 142.010 67.304,143.816 67.593,144.813 67.595 C 145.810 67.598,147.610 67.874,148.813 68.209 C 150.016 68.544,152.401 69.082,154.114 69.403 C 155.827 69.724,157.549 70.159,157.942 70.369 C 158.334 70.579,159.723 71.020,161.027 71.349 C 165.552 72.489,169.034 73.561,170.214 74.177 C 170.866 74.517,171.829 74.796,172.353 74.798 C 172.877 74.799,173.867 75.141,174.553 75.557 C 175.239 75.973,176.430 76.443,177.200 76.600 C 177.970 76.757,179.140 77.205,179.800 77.594 C 180.460 77.984,181.657 78.419,182.460 78.562 C 183.263 78.705,184.140 79.086,184.409 79.411 C 184.678 79.735,185.179 80.000,185.523 80.000 C 185.866 80.000,186.969 80.380,187.974 80.844 C 188.978 81.308,190.790 82.137,192.000 82.687 C 195.327 84.198,198.506 85.683,199.400 86.143 C 199.840 86.370,201.462 87.195,203.004 87.978 C 204.546 88.760,206.251 89.715,206.793 90.100 C 207.335 90.485,208.070 90.800,208.427 90.800 C 208.784 90.800,209.402 91.160,209.800 91.600 C 210.198 92.040,210.752 92.400,211.031 92.400 C 211.310 92.400,212.073 92.850,212.727 93.400 C 213.381 93.950,214.078 94.400,214.276 94.400 C 214.475 94.400,214.989 94.668,215.419 94.996 C 215.848 95.324,217.190 96.247,218.400 97.047 C 219.610 97.847,221.185 99.054,221.901 99.730 C 223.812 101.535,224.074 100.955,224.210 94.619 C 224.291 90.814,224.495 88.905,224.886 88.286 C 225.194 87.799,225.656 86.680,225.913 85.800 C 226.376 84.214,228.071 82.000,228.824 82.000 C 231.170 82.000,238.829 89.203,239.779 92.302 C 240.693 95.287,242.794 96.238,243.748 94.100 C 244.746 91.865,245.623 90.296,246.375 89.400 C 246.745 88.960,247.258 88.150,247.515 87.600 C 247.772 87.050,248.432 85.880,248.982 85.000 C 249.531 84.120,250.349 82.725,250.799 81.900 C 251.248 81.075,251.793 80.400,252.008 80.400 C 252.224 80.400,252.403 80.175,252.407 79.900 C 252.414 79.455,254.194 76.509,255.150 75.362 C 255.351 75.122,255.809 74.357,256.168 73.662 C 256.527 72.968,256.996 72.400,257.210 72.400 C 257.425 72.400,257.600 72.223,257.600 72.007 C 257.600 71.642,261.028 66.397,262.673 64.243 C 263.073 63.720,263.670 62.891,264.000 62.401 C 264.330 61.911,265.050 60.907,265.600 60.171 C 266.150 59.435,267.050 58.178,267.600 57.378 C 268.150 56.578,269.005 55.548,269.500 55.089 C 269.995 54.631,270.400 54.050,270.400 53.798 C 270.400 53.546,270.850 52.917,271.400 52.400 C 271.950 51.883,272.400 51.327,272.400 51.164 C 272.400 50.881,273.441 49.542,274.860 47.998 C 275.223 47.603,276.467 46.047,277.625 44.540 C 278.782 43.033,280.538 40.900,281.526 39.800 C 286.010 34.810,287.928 32.756,291.278 29.358 L 294.869 25.715 292.735 24.514 C 291.561 23.853,290.150 23.172,289.600 23.001 C 289.050 22.830,288.171 22.355,287.646 21.945 C 287.121 21.535,286.384 21.200,286.008 21.200 C 285.632 21.200,284.998 20.840,284.600 20.400 C 284.202 19.960,283.589 19.598,283.238 19.596 C 282.887 19.594,281.700 19.150,280.600 18.609 C 279.500 18.068,278.385 17.619,278.121 17.613 C 277.858 17.606,276.796 17.150,275.762 16.600 C 274.727 16.050,273.558 15.600,273.164 15.600 C 272.770 15.600,272.343 15.432,272.216 15.226 C 272.089 15.021,271.023 14.573,269.848 14.231 C 268.672 13.889,267.190 13.339,266.555 13.007 C 265.920 12.676,264.950 12.403,264.400 12.401 C 263.850 12.399,262.845 12.059,262.167 11.645 C 261.488 11.231,260.162 10.763,259.220 10.603 C 258.278 10.444,256.763 9.994,255.854 9.604 C 254.944 9.213,253.214 8.771,252.010 8.621 C 250.805 8.471,249.611 8.175,249.357 7.964 C 249.102 7.752,247.512 7.315,245.825 6.992 C 244.138 6.669,242.452 6.242,242.079 6.043 C 241.705 5.844,239.711 5.476,237.646 5.226 C 235.582 4.976,233.602 4.617,233.246 4.429 C 232.891 4.242,230.260 3.882,227.400 3.630 C 224.540 3.378,221.570 3.071,220.800 2.948 C 216.252 2.222,211.312 1.926,200.793 1.748 C 194.299 1.638,188.839 1.695,188.661 1.874 M79.331 262.588 C 82.166 263.656,85.160 265.526,85.185 266.246 C 85.193 266.491,85.575 267.169,86.034 267.752 C 87.104 269.112,87.889 274.170,87.165 275.042 C 86.786 275.499,85.798 275.602,82.640 275.513 L 78.600 275.400 78.378 273.800 C 77.576 268.013,71.315 266.670,68.734 271.730 C 67.336 274.470,68.851 278.796,71.435 279.445 C 71.948 279.573,72.577 279.931,72.833 280.239 C 73.089 280.548,73.573 280.800,73.909 280.800 C 74.245 280.800,75.438 281.231,76.560 281.758 C 77.682 282.286,79.680 283.222,81.000 283.838 C 87.255 286.761,89.000 289.457,89.000 296.200 C 89.000 302.677,87.588 305.532,83.080 308.174 C 80.910 309.446,73.799 310.900,71.471 310.547 C 62.438 309.181,59.243 306.512,58.378 299.610 C 57.807 295.059,58.055 294.800,62.982 294.800 C 67.228 294.800,67.600 295.024,67.600 297.587 C 67.600 301.785,71.190 304.114,75.692 302.837 C 77.845 302.227,78.018 302.057,78.956 299.643 C 80.080 296.751,77.797 291.682,75.327 291.587 C 75.147 291.581,74.100 291.132,73.000 290.591 C 71.900 290.050,70.756 289.606,70.457 289.604 C 69.971 289.600,66.405 287.935,64.133 286.649 C 57.531 282.915,56.628 270.841,62.536 265.303 C 66.438 261.646,73.706 260.471,79.331 262.588 M120.369 263.362 C 120.661 263.715,120.791 265.093,120.718 267.062 L 120.600 270.200 115.939 270.312 C 112.701 270.390,111.145 270.585,110.843 270.949 C 110.547 271.305,110.375 277.461,110.304 290.236 L 110.200 309.000 105.800 309.000 L 101.400 309.000 101.200 289.800 L 101.000 270.600 96.424 270.486 C 93.908 270.424,91.634 270.194,91.372 269.976 C 90.986 269.656,90.840 265.358,91.153 263.528 C 91.305 262.644,119.639 262.483,120.369 263.362 M138.265 263.300 C 138.774 264.114,140.371 270.499,140.391 271.800 C 140.402 272.460,140.749 274.080,141.163 275.400 C 141.577 276.720,142.049 279.053,142.213 280.584 C 142.377 282.116,142.736 283.916,143.012 284.584 C 143.287 285.253,143.637 287.060,143.790 288.600 C 143.944 290.140,144.296 291.940,144.574 292.600 L 145.078 293.800 145.739 291.500 C 147.361 285.856,147.600 284.861,147.600 283.752 C 147.600 283.104,147.876 281.590,148.213 280.387 C 148.550 279.184,149.082 276.670,149.394 274.800 C 149.707 272.930,150.168 270.770,150.418 270.000 C 150.668 269.230,150.992 267.525,151.137 266.211 C 151.358 264.199,151.558 263.741,152.400 263.316 C 153.860 262.580,164.539 262.604,165.154 263.345 C 165.482 263.740,165.578 270.120,165.503 286.445 L 165.400 309.000 161.903 309.116 C 156.322 309.300,156.801 310.633,156.795 294.886 C 156.789 281.118,156.690 279.600,155.797 279.600 C 155.234 279.600,154.981 280.407,154.608 283.400 C 154.471 284.500,154.020 286.750,153.607 288.400 C 153.195 290.050,152.664 292.345,152.428 293.500 C 152.193 294.655,151.807 296.545,151.572 297.700 C 151.336 298.855,150.795 301.150,150.369 302.800 C 149.943 304.450,149.453 306.520,149.281 307.400 L 148.967 309.000 146.384 309.124 C 141.761 309.345,141.318 309.135,140.828 306.487 C 140.596 305.229,140.221 303.480,139.996 302.600 C 139.771 301.720,139.310 299.560,138.972 297.800 C 138.633 296.040,138.096 293.921,137.778 293.092 C 137.460 292.262,137.200 291.087,137.200 290.479 C 137.200 289.871,136.924 288.390,136.587 287.187 C 136.250 285.984,135.719 283.422,135.407 281.494 C 134.011 272.870,133.433 276.094,133.200 293.800 L 133.000 309.000 129.260 309.116 C 126.846 309.190,125.321 309.066,124.960 308.767 C 124.254 308.181,124.115 264.880,124.814 263.574 C 125.329 262.612,137.679 262.361,138.265 263.300 M264.763 263.700 C 265.587 265.846,266.377 269.190,266.629 271.600 C 266.779 273.030,267.160 274.830,267.476 275.600 C 267.792 276.370,268.211 278.392,268.407 280.093 C 268.603 281.794,269.021 283.954,269.337 284.893 C 269.652 285.832,270.033 287.770,270.184 289.200 C 270.504 292.241,270.738 293.200,271.161 293.200 C 271.610 293.200,273.535 286.278,274.044 282.834 C 274.285 281.203,274.734 279.155,275.041 278.284 C 275.348 277.412,275.602 276.137,275.605 275.450 C 275.607 274.762,276.057 272.400,276.605 270.201 C 277.152 268.001,277.600 265.634,277.600 264.940 C 277.600 263.884,277.806 263.607,278.860 263.239 C 280.457 262.682,290.196 262.663,291.226 263.214 C 292.317 263.798,292.455 308.540,291.367 308.957 C 290.558 309.268,285.278 309.264,284.115 308.952 L 283.229 308.714 283.115 294.771 C 283.015 282.618,282.918 280.745,282.359 280.187 C 281.628 279.457,281.063 281.037,280.611 285.077 C 280.483 286.219,280.135 287.749,279.838 288.477 C 279.540 289.205,279.167 290.877,279.008 292.193 C 278.849 293.509,278.479 295.219,278.186 295.993 C 277.893 296.767,277.440 298.733,277.180 300.363 C 276.919 301.993,276.457 303.922,276.153 304.650 C 275.849 305.378,275.600 306.484,275.600 307.107 C 275.600 308.866,274.953 309.200,271.549 309.200 C 268.010 309.200,267.362 308.813,267.001 306.487 C 266.609 303.967,266.074 301.497,265.423 299.213 C 265.080 298.010,264.800 296.537,264.800 295.939 C 264.800 295.341,264.597 294.345,264.350 293.726 C 264.102 293.107,263.571 290.980,263.171 289.000 C 262.770 287.020,262.239 284.410,261.992 283.200 C 261.744 281.990,261.357 280.036,261.133 278.858 C 260.170 273.816,259.805 277.267,259.600 293.320 L 259.400 309.000 255.200 309.000 L 251.000 309.000 250.897 286.445 C 250.822 270.120,250.918 263.740,251.246 263.345 C 252.141 262.266,264.335 262.586,264.763 263.700 M321.744 264.000 C 324.177 265.233,326.662 267.758,327.253 269.597 C 327.501 270.369,327.906 271.253,328.152 271.561 C 328.934 272.541,328.734 280.811,327.900 281.989 C 327.515 282.533,327.199 283.253,327.198 283.589 C 327.195 284.340,324.309 287.312,322.371 288.560 C 320.957 289.470,316.256 290.309,311.416 290.515 C 308.861 290.624,308.890 290.508,308.840 300.657 C 308.805 307.611,308.713 308.748,308.167 308.957 C 306.975 309.415,299.783 309.223,299.280 308.720 C 298.569 308.009,298.589 264.269,299.300 263.692 C 300.991 262.319,318.913 262.565,321.744 264.000 M350.150 263.314 C 351.048 263.971,351.182 308.303,350.287 308.886 C 350.019 309.060,348.000 309.157,345.800 309.101 L 341.800 309.000 341.600 293.400 C 341.490 284.820,341.254 277.575,341.076 277.300 C 340.854 276.956,339.527 276.800,336.819 276.800 C 332.314 276.800,332.400 276.870,332.400 273.210 C 332.400 270.611,332.613 270.400,335.240 270.400 C 338.208 270.400,343.160 267.004,343.188 264.949 C 343.208 263.486,344.383 262.929,347.624 262.846 C 348.626 262.821,349.763 263.031,350.150 263.314 M190.952 264.595 C 197.499 268.076,198.916 278.420,193.421 282.611 C 191.622 283.983,191.522 285.305,193.165 285.985 C 194.661 286.605,197.134 289.356,197.433 290.733 C 197.561 291.320,197.836 292.256,198.045 292.814 C 199.562 296.856,196.756 305.644,193.387 307.399 C 192.954 307.625,192.068 308.168,191.418 308.605 C 189.543 309.865,180.194 309.790,178.450 308.500 C 177.780 308.005,177.121 307.600,176.985 307.600 C 176.664 307.600,174.400 305.336,174.400 305.015 C 174.400 304.879,174.042 304.280,173.604 303.684 C 172.580 302.288,171.911 297.772,172.639 297.167 C 173.692 296.294,175.756 296.902,176.144 298.200 C 178.067 304.635,181.603 307.123,187.310 306.056 C 189.131 305.716,192.400 303.559,192.400 302.698 C 192.400 302.459,192.715 301.915,193.100 301.490 C 194.529 299.912,194.099 292.548,192.457 290.473 C 190.516 288.021,190.124 287.860,182.944 286.562 C 180.138 286.054,181.946 283.825,185.709 283.153 C 193.051 281.841,195.232 272.626,189.269 268.111 C 185.047 264.914,178.287 267.784,177.696 273.024 C 177.448 275.228,176.910 275.681,174.730 275.524 C 172.517 275.365,172.342 274.531,173.773 270.957 C 176.503 264.138,184.513 261.172,190.952 264.595 M222.265 264.570 C 228.975 267.940,230.888 277.730,226.190 284.652 C 224.831 286.655,222.243 289.129,217.400 293.055 C 211.573 297.778,209.094 300.780,208.252 304.134 C 207.872 305.651,208.108 305.688,217.953 305.622 C 228.387 305.553,229.316 305.726,229.125 307.700 L 229.000 309.000 216.600 309.097 C 209.441 309.153,203.953 309.037,203.616 308.822 C 202.790 308.294,204.230 301.924,205.616 299.978 C 206.047 299.372,206.400 298.677,206.400 298.433 C 206.400 297.895,213.728 290.511,215.369 289.395 C 222.457 284.574,225.503 278.805,224.036 272.979 C 223.561 271.091,221.844 268.400,221.116 268.400 C 220.901 268.400,220.269 268.040,219.709 267.600 C 215.710 264.454,208.000 269.339,208.000 275.020 C 208.000 277.417,205.072 278.774,203.635 277.042 C 203.027 276.310,204.558 270.156,205.642 268.974 C 206.059 268.520,206.400 267.980,206.400 267.774 C 206.400 266.804,210.715 264.198,213.400 263.546 C 215.671 262.995,220.163 263.514,222.265 264.570 M309.500 270.406 C 308.580 270.976,308.443 281.359,309.340 282.586 C 310.229 283.802,315.699 283.238,317.228 281.773 C 319.442 279.652,319.430 273.702,317.208 271.442 C 315.944 270.157,310.978 269.490,309.500 270.406 " stroke="none" fill="#525252" fill-rule="evenodd"></path></g></svg>